<svg xmlns="http://www.w3.org/2000/svg" width="40" height="40"><defs><clipPath id="a"><path data-name="長方形 802" fill="none" d="M0 0h40v40H0z"/></clipPath></defs><path data-name="長方形 800" fill="none" d="M0 0h20v20H0z"/><g data-name="グループ 5706"><g data-name="グループ 5705" clip-path="url(#a)"><path data-name="パス 536" d="M30.983 40H9.018A9.018 9.018 0 010 30.983V9.018A9.018 9.018 0 019.018 0h21.965A9.018 9.018 0 0140 9.018v21.965A9.017 9.017 0 0130.983 40" fill="#06c755"/><path data-name="パス 537" d="M33.332 18.115c0-5.967-5.982-10.822-13.336-10.822S6.66 12.147 6.66 18.115c0 5.35 4.744 9.83 11.153 10.677.434.094 1.025.286 1.175.658a2.738 2.738 0 01.043 1.206l-.19 1.142c-.058.337-.268 1.319 1.155.719s7.68-4.522 10.478-7.742a9.63 9.63 0 002.859-6.659" fill="#fff"/><path data-name="パス 538" d="M28.895 21.561h-3.747a.255.255 0 01-.255-.255v-5.815a.255.255 0 01.255-.255h3.747a.255.255 0 01.255.255v.946a.255.255 0 01-.255.255h-2.546v.982h2.546a.255.255 0 01.255.255v.946a.255.255 0 01-.255.255h-2.546v.982h2.546a.255.255 0 01.255.255v.946a.255.255 0 01-.255.255" fill="#06c755"/><path data-name="パス 539" d="M15.036 21.561a.255.255 0 00.255-.255v-.946a.255.255 0 00-.255-.255H12.49v-4.62a.255.255 0 00-.255-.255h-.946a.255.255 0 00-.255.255v5.816a.255.255 0 00.255.255h3.747z" fill="#06c755"/><path data-name="パス 540" d="M17.291 15.232h-.946a.255.255 0 00-.255.255v5.82a.255.255 0 00.255.255h.946a.255.255 0 00.255-.255v-5.82a.255.255 0 00-.255-.255" fill="#06c755"/><path data-name="パス 541" d="M23.731 15.232h-.946a.255.255 0 00-.255.255v3.457l-2.663-3.6a.278.278 0 00-.021-.026l-.015-.016-.021-.015-.007-.005-.013-.009h-.008l-.014-.008h-.008l-.015-.007H18.71a.255.255 0 00-.255.255v5.82a.255.255 0 00.255.255h.946a.255.255 0 00.255-.255v-3.456l2.666 3.6a.257.257 0 00.066.064l.016.01h.007l.012.006.013.005h.008l.018.006a.259.259 0 00.066.009h.941a.255.255 0 00.255-.255v-5.82a.255.255 0 00-.255-.255" fill="#06c755"/></g></g></svg>