<svg xmlns="http://www.w3.org/2000/svg" viewBox="0 0 250 250"><path d="M59.5 0C26.8 0 0 26.7 0 59.5v130.9c0 32.8 26.7 59.5 59.5 59.5h130.9c32.8 0 59.5-26.7 59.5-59.5V59.5C250 26.7 223.2 0 190.5 0h-131zm0 11.9h130.9c26.4 0 47.6 21.2 47.6 47.6v130.9c0 26.4-21.2 47.6-47.6 47.6H59.5c-26.4 0-47.6-21.2-47.6-47.6V59.5c0-26.4 21.3-47.6 47.6-47.6zm24.1 30c-12.2-.5-21.4 4.1-27.2 9.7-2.9 2.8-5 5.8-6.4 8.5-1.4 2.8-2.3 5.1-2.3 8 0-.3-.1 1.1-.1 2.7s0 3.8.1 6.4c.3 5.3 1.2 12.4 3.6 20.8 4.7 16.9 15.4 39 38.5 62.2 23.1 23.1 45.3 33.8 62.2 38.5 8.4 2.4 15.6 3.3 20.8 3.6 2.6.1 4.8.2 6.4.1 1.6 0 3-.1 2.8-.1 3 0 5.3-.9 8-2.3s5.8-3.5 8.5-6.4c5.6-5.8 10.2-15 9.7-27.2-.2-5.8-3.5-10.9-8.2-14-3.7-2.4-9.4-6-16.8-10.8-8.6-5.5-19.7-5.9-28.7-1l.5-.3-7 3-.5.4c-1.7 1.2-3.8 1.4-5.7.6-5.4-2.2-13.7-6.7-21.5-14.4s-12.2-16.1-14.4-21.5c-.8-1.9-.6-4 .6-5.7l.4-.5 3-7-.3.5c4.9-9 4.6-20.1-1-28.7-4.8-7.4-8.4-13.2-10.8-16.8-3.2-4.8-8.4-8-14.2-8.3zm-.5 11.9c1.7.1 3.4 1 4.5 2.8 2.4 3.7 6 9.4 10.8 16.8 3.2 4.9 3.4 11.4.6 16.6l-.1.3L96 97l.6-1.1c-3.5 5-4.2 11.5-1.9 17.2 2.7 6.4 7.8 16.1 17 25.3s18.9 14.3 25.3 17c5.7 2.4 12.2 1.7 17.2-1.9l-1.1.6 6.7-2.9.3-.1c5.1-2.8 11.6-2.6 16.6.6 7.4 4.8 13.1 8.4 16.8 10.8 1.7 1.1 2.7 2.8 2.8 4.5.4 9-2.7 14.7-6.4 18.5-1.8 1.9-3.8 3.3-5.4 4.1-1.6.8-3.2 1-2.6 1-1.1 0-1.7.1-3 .1-1.4 0-3.2 0-5.5-.1-4.5-.3-10.8-1-18.3-3.1-15-4.2-35.2-13.7-56.9-35.5s-31.3-42-35.5-57.1c-2.1-7.5-2.9-13.8-3.1-18.3-.1-2.3-.1-4.1-.1-5.5 0-1.4.1-1.9.1-3 0 .6.2-1 1-2.6s2.2-3.6 4.1-5.4c3.7-3.5 9.4-6.7 18.4-6.3z"/></svg>