<svg xmlns="http://www.w3.org/2000/svg" width="20" height="20"><defs><clipPath id="a"><path data-name="長方形 649" transform="translate(0 .111)" fill="none" d="M0 0h20v20H0z"/></clipPath></defs><g data-name="グループ 5480"><g data-name="グループ 5479" transform="translate(0 -.111)" clip-path="url(#a)" fill="#45433e"><path data-name="パス 313" d="M9.107 11.223a.365.365 0 01-.258-.622c.164-.168.321-.325.479-.481l.248-.246 4.6-4.6h-2.7a.364.364 0 110-.728h3.579a.374.374 0 01.262.1.357.357 0 01.085.152.368.368 0 01.02.11v3.581a.364.364 0 11-.729 0V5.783l-5.33 5.329a.362.362 0 01-.258.107"/><path data-name="パス 314" d="M5.733 15.588c-.055 0-.111 0-.166-.007a1.433 1.433 0 01-.488-.136 1.21 1.21 0 01-.315-.223 1.231 1.231 0 01-.36-.662 4.354 4.354 0 01-.027-.708v-8.01a1.284 1.284 0 011.3-1.3H9.1a.364.364 0 110 .728H5.815c-.075 0-.151 0-.226.007a.922.922 0 00-.124.031l-.015.007-.029.006-.04.017-.068.052a.515.515 0 00-.165.21.99.99 0 00-.043.148.743.743 0 000 .084v8.536a.936.936 0 00.036.14l.024.05v.015l.032.081.02-.006a.887.887 0 00.086.09 1 1 0 00.12.075l.025.016.041.019.034.007c.031 0 .058.008.086.01l.074.006h8.347c.057 0 .114 0 .171-.005a.946.946 0 00.116-.028l.052-.024h.016l.074-.028v-.023l.015-.01a.983.983 0 00.09-.085 1.051 1.051 0 00.083-.136.973.973 0 00.04-.132 3.708 3.708 0 00.007-.471v-3.065a.365.365 0 11.729 0v3.378a1.24 1.24 0 01-.006.153 1.455 1.455 0 01-.133.491 1.221 1.221 0 01-.215.305 1.305 1.305 0 01-.936.4z"/></g></g></svg>