<svg xmlns="http://www.w3.org/2000/svg" viewBox="0 0 256 256" width="240" height="240"><path d="M48 28.8v198.4h160V75.475L161.325 28.8zm6.4 6.4h102.4V80h44.8v140.8H54.4zm108.8 4.525L197.075 73.6H163.2zM70.4 41.6a3.206 3.206 0 00-3.2 3.2c0 1.762 1.438 3.2 3.2 3.2 1.762 0 3.2-1.438 3.2-3.2 0-1.762-1.438-3.2-3.2-3.2zm0 12.8a3.206 3.206 0 00-3.2 3.2c0 1.762 1.438 3.2 3.2 3.2 1.762 0 3.2-1.438 3.2-3.2 0-1.762-1.438-3.2-3.2-3.2zm0 12.8a3.206 3.206 0 00-3.2 3.2c0 1.762 1.438 3.2 3.2 3.2 1.762 0 3.2-1.438 3.2-3.2 0-1.762-1.438-3.2-3.2-3.2zm0 12.8a3.206 3.206 0 00-3.2 3.2c0 1.762 1.438 3.2 3.2 3.2 1.762 0 3.2-1.438 3.2-3.2 0-1.762-1.438-3.2-3.2-3.2zm0 12.8a3.206 3.206 0 00-3.2 3.2c0 1.762 1.438 3.2 3.2 3.2 1.762 0 3.2-1.438 3.2-3.2 0-1.762-1.438-3.2-3.2-3.2zm0 12.8a3.206 3.206 0 00-3.2 3.2c0 1.762 1.438 3.2 3.2 3.2 1.762 0 3.2-1.438 3.2-3.2 0-1.762-1.438-3.2-3.2-3.2zm19.2 3.2v6.4H176v-6.4zm-19.2 9.6a3.206 3.206 0 00-3.2 3.2c0 1.762 1.438 3.2 3.2 3.2 1.762 0 3.2-1.438 3.2-3.2 0-1.762-1.438-3.2-3.2-3.2zm19.2 9.6v6.4h73.6V128zm-19.2 3.2a3.206 3.206 0 00-3.2 3.2c0 1.762 1.438 3.2 3.2 3.2 1.762 0 3.2-1.438 3.2-3.2 0-1.762-1.438-3.2-3.2-3.2zm0 12.8a3.206 3.206 0 00-3.2 3.2c0 1.762 1.438 3.2 3.2 3.2 1.762 0 3.2-1.438 3.2-3.2 0-1.762-1.438-3.2-3.2-3.2zm19.2 3.2v6.4H176v-6.4zm-19.2 9.6a3.206 3.206 0 00-3.2 3.2c0 1.762 1.438 3.2 3.2 3.2 1.762 0 3.2-1.438 3.2-3.2 0-1.762-1.438-3.2-3.2-3.2zm19.2 9.6v6.4h73.6v-6.4zm-19.2 3.2a3.206 3.206 0 00-3.2 3.2c0 1.762 1.438 3.2 3.2 3.2 1.762 0 3.2-1.438 3.2-3.2 0-1.762-1.438-3.2-3.2-3.2zm0 12.8a3.206 3.206 0 00-3.2 3.2c0 1.762 1.438 3.2 3.2 3.2 1.762 0 3.2-1.438 3.2-3.2 0-1.762-1.438-3.2-3.2-3.2zm0 12.8a3.206 3.206 0 00-3.2 3.2c0 1.762 1.438 3.2 3.2 3.2 1.762 0 3.2-1.438 3.2-3.2 0-1.762-1.438-3.2-3.2-3.2zm0 12.8a3.206 3.206 0 00-3.2 3.2c0 1.762 1.438 3.2 3.2 3.2 1.762 0 3.2-1.438 3.2-3.2 0-1.762-1.438-3.2-3.2-3.2z" fill="#d3d2cf" font-family="none" font-weight="none" font-size="none" text-anchor="none"/></svg>