<?xml version="1.0" encoding="utf-8"?>
<!-- Generator: Adobe Illustrator 28.1.0, SVG Export Plug-In . SVG Version: 6.00 Build 0)  -->
<svg version="1.1" id="レイヤー_1" xmlns="http://www.w3.org/2000/svg" xmlns:xlink="http://www.w3.org/1999/xlink" x="0px"
	 y="0px" viewBox="0 0 250 250" style="enable-background:new 0 0 250 250;" xml:space="preserve">
<path d="M59.5,0C26.8,0,0,26.7,0,59.5v130.9c0,32.8,26.7,59.5,59.5,59.5h130.9c32.8,0,59.5-26.7,59.5-59.5V59.5
	C250,26.7,223.2,0,190.5,0H59.5z M59.5,11.9h130.9c26.4,0,47.6,21.2,47.6,47.6v130.9c0,26.4-21.2,47.6-47.6,47.6H59.5
	c-26.4,0-47.6-21.2-47.6-47.6V59.5C11.9,33.1,33.2,11.9,59.5,11.9z M83.6,41.9c-12.2-0.5-21.4,4.1-27.2,9.7c-2.9,2.8-5,5.8-6.4,8.5
	c-1.4,2.8-2.3,5.1-2.3,8c0-0.3-0.1,1.1-0.1,2.7c0,1.6,0,3.8,0.1,6.4c0.3,5.3,1.2,12.4,3.6,20.8c4.7,16.9,15.4,39,38.5,62.2
	c23.1,23.1,45.3,33.8,62.2,38.5c8.4,2.4,15.6,3.3,20.8,3.6c2.6,0.1,4.8,0.2,6.4,0.1c1.6,0,3-0.1,2.8-0.1c3,0,5.3-0.9,8-2.3
	s5.8-3.5,8.5-6.4c5.6-5.8,10.2-15,9.7-27.2c-0.2-5.8-3.5-10.9-8.2-14c-3.7-2.4-9.4-6-16.8-10.8c-8.6-5.5-19.7-5.9-28.7-1l0.5-0.3
	l-7,3l-0.5,0.4c-1.7,1.2-3.8,1.4-5.7,0.6c-5.4-2.2-13.7-6.7-21.5-14.4s-12.2-16.1-14.4-21.5c-0.8-1.9-0.6-4,0.6-5.7l0.4-0.5l3-7
	l-0.3,0.5c4.9-9,4.6-20.1-1-28.7c-4.8-7.4-8.4-13.2-10.8-16.8C94.6,45.4,89.4,42.2,83.6,41.9z M83.1,53.8c1.7,0.1,3.4,1,4.5,2.8
	c2.4,3.7,6,9.4,10.8,16.8c3.2,4.9,3.4,11.4,0.6,16.6l-0.1,0.3l-2.9,6.7l0.6-1.1c-3.5,5-4.2,11.5-1.9,17.2c2.7,6.4,7.8,16.1,17,25.3
	s18.9,14.3,25.3,17c5.7,2.4,12.2,1.7,17.2-1.9l-1.1,0.6l6.7-2.9l0.3-0.1c5.1-2.8,11.6-2.6,16.6,0.6v0c7.4,4.8,13.1,8.4,16.8,10.8
	c1.7,1.1,2.7,2.8,2.8,4.5c0.4,9-2.7,14.7-6.4,18.5c-1.8,1.9-3.8,3.3-5.4,4.1c-1.6,0.8-3.2,1-2.6,1c-1.1,0-1.7,0.1-3,0.1
	c-1.4,0-3.2,0-5.5-0.1c-4.5-0.3-10.8-1-18.3-3.1c-15-4.2-35.2-13.7-56.9-35.5S66.9,110,62.7,94.9c-2.1-7.5-2.9-13.8-3.1-18.3
	c-0.1-2.3-0.1-4.1-0.1-5.5c0-1.4,0.1-1.9,0.1-3c0,0.6,0.2-1,1-2.6c0.8-1.6,2.2-3.6,4.1-5.4C68.4,56.6,74.1,53.4,83.1,53.8z"/>
</svg>
