<svg id="LINE" xmlns="http://www.w3.org/2000/svg" xmlns:xlink="http://www.w3.org/1999/xlink" width="40" height="40" viewBox="0 0 40 40">
  <defs>
    <clipPath id="clip-path">
      <rect id="長方形_802" data-name="長方形 802" width="40" height="40" fill="none"/>
    </clipPath>
  </defs>
  <rect id="長方形_800" data-name="長方形 800" width="20" height="20" fill="none"/>
  <g id="グループ_5706" data-name="グループ 5706">
    <g id="グループ_5705" data-name="グループ 5705" clip-path="url(#clip-path)">
      <path id="パス_536" data-name="パス 536" d="M30.983,40H9.018A9.018,9.018,0,0,1,0,30.983V9.018A9.018,9.018,0,0,1,9.018,0H30.983A9.018,9.018,0,0,1,40,9.018V30.983A9.017,9.017,0,0,1,30.983,40" fill="#06c755"/>
      <path id="パス_537" data-name="パス 537" d="M79.951,69.168c0-5.967-5.982-10.822-13.336-10.822S53.279,63.2,53.279,69.168c0,5.35,4.744,9.83,11.153,10.677.434.094,1.025.286,1.175.658a2.738,2.738,0,0,1,.043,1.206s-.156.941-.19,1.142c-.058.337-.268,1.319,1.155.719s7.68-4.522,10.478-7.742h0a9.63,9.63,0,0,0,2.859-6.659" transform="translate(-46.619 -51.053)" fill="#fff"/>
      <path id="パス_538" data-name="パス 538" d="M203.153,128.185h-3.747a.255.255,0,0,1-.255-.255v0h0v-5.81h0v-.005a.255.255,0,0,1,.255-.255h3.747a.255.255,0,0,1,.255.255v.946a.255.255,0,0,1-.255.255h-2.546v.982h2.546a.255.255,0,0,1,.255.255v.946a.255.255,0,0,1-.255.255h-2.546v.982h2.546a.255.255,0,0,1,.255.255v.946a.255.255,0,0,1-.255.255" transform="translate(-174.258 -106.624)" fill="#06c755"/>
      <path id="パス_539" data-name="パス 539" d="M92.279,128.185a.255.255,0,0,0,.255-.255v-.946a.255.255,0,0,0-.255-.255H89.733v-4.62a.255.255,0,0,0-.255-.255h-.946a.255.255,0,0,0-.255.255v5.816h0v0a.255.255,0,0,0,.255.255h3.747Z" transform="translate(-77.243 -106.624)" fill="#06c755"/>
      <path id="パス_540" data-name="パス 540" d="M129.93,121.855h-.946a.255.255,0,0,0-.255.255v5.82a.255.255,0,0,0,.255.255h.946a.255.255,0,0,0,.255-.255v-5.82a.255.255,0,0,0-.255-.255" transform="translate(-112.639 -106.623)" fill="#06c755"/>
      <path id="パス_541" data-name="パス 541" d="M152.921,121.855h-.946a.255.255,0,0,0-.255.255v3.457l-2.663-3.6a.278.278,0,0,0-.021-.026l0,0-.015-.016,0,0L149,121.91l-.007-.005-.013-.009-.008,0-.014-.008-.008,0-.015-.007-.008,0-.015,0-.009,0-.015,0-.011,0-.014,0H147.9a.255.255,0,0,0-.255.255v5.82a.255.255,0,0,0,.255.255h.946a.255.255,0,0,0,.255-.255v-3.456l2.666,3.6a.257.257,0,0,0,.066.064l0,0,.016.01.007,0,.012.006.013.005.008,0,.018.006h0a.259.259,0,0,0,.066.009h.941a.255.255,0,0,0,.255-.255v-5.82a.255.255,0,0,0-.255-.255" transform="translate(-129.19 -106.623)" fill="#06c755"/>
    </g>
  </g>
</svg>
