<svg id="link_icon_btn" xmlns="http://www.w3.org/2000/svg" xmlns:xlink="http://www.w3.org/1999/xlink" width="20" height="20" viewBox="0 0 20 20">
  <defs>
    <clipPath id="clip-path">
      <rect id="長方形_649" data-name="長方形 649" width="20" height="20" transform="translate(0 0.111)" fill="none"/>
    </clipPath>
  </defs>
  <g id="グループ_5480" data-name="グループ 5480" transform="translate(-0.26 -0.234)">
    <g id="グループ_5479" data-name="グループ 5479" transform="translate(0.26 0.123)" clip-path="url(#clip-path)">
      <path id="パス_313" data-name="パス 313" d="M44.608,29.2a.365.365,0,0,1-.258-.622c.164-.168.321-.325.479-.481l.248-.246,4.6-4.6h-2.7a.364.364,0,1,1,0-.728h3.579a.374.374,0,0,1,.262.1.357.357,0,0,1,.085.152.368.368,0,0,1,.02.11v3.581a.364.364,0,1,1-.729,0V23.76l-5.33,5.329a.362.362,0,0,1-.258.107" transform="translate(-35.501 -17.977)" fill="#45433e"/>
      <path id="パス_314" data-name="パス 314" d="M23.86,33.555c-.055,0-.111,0-.166-.007a1.433,1.433,0,0,1-.488-.136,1.21,1.21,0,0,1-.315-.223,1.231,1.231,0,0,1-.36-.662,4.354,4.354,0,0,1-.027-.708V23.809a1.284,1.284,0,0,1,1.3-1.3h3.423a.364.364,0,1,1,0,.728H24.082c-.042,0-.091,0-.14,0-.075,0-.151,0-.226.007a.922.922,0,0,0-.124.031l-.015.007-.029.006-.04.017-.068.052v0a.515.515,0,0,0-.165.21.99.99,0,0,0-.043.148.743.743,0,0,0,0,.084v8.273c0,.083,0,.173,0,.263a.936.936,0,0,0,.036.14c.01.021.017.036.024.05v.015l.032.081.02-.006a.887.887,0,0,0,.086.09,1,1,0,0,0,.12.075l.025.016.041.019.034.007c.031,0,.058.008.086.01l.074.006v0h8.254l.093,0c.057,0,.114,0,.171-.005a.946.946,0,0,0,.116-.028l.052-.024h.016l.074-.028v-.023l.015-.01a.983.983,0,0,0,.09-.085,1.051,1.051,0,0,0,.083-.136.973.973,0,0,0,.04-.132,3.708,3.708,0,0,0,.007-.471V28.831a.365.365,0,1,1,.729,0v3.378a1.24,1.24,0,0,1-.006.153,1.455,1.455,0,0,1-.133.491,1.221,1.221,0,0,1-.215.305,1.305,1.305,0,0,1-.936.4Z" transform="translate(-18.127 -17.967)" fill="#45433e"/>
    </g>
  </g>
</svg>
